<?xml version="1.0" encoding="utf-8"?>
<!-- Generator: Adobe Illustrator 21.0.0, SVG Export Plug-In . SVG Version: 6.00 Build 0)  -->
<svg version="1.1" id="Capa_1" xmlns="http://www.w3.org/2000/svg" xmlns:xlink="http://www.w3.org/1999/xlink" x="0px" y="0px"
	 viewBox="0 0 59 35" style="enable-background:new 0 0 59 35;" xml:space="preserve">
<style type="text/css">
	.st0{fill:#FFFFFF;stroke:#FFFFFF;stroke-width:0.63;stroke-miterlimit:10;}
</style>
<title>Mesa de trabajo 1</title>
<path d="M54.6,19.6c-1-0.3-2-0.5-3-0.7c-2-0.5-3.9-1-5.9-1.5c-0.3-0.1-0.4-0.2-0.4-0.6c0.1-1.9,0.2-3.8,0.2-5.7
	c0-1.1,0.1-2.3,0.1-3.4S45.1,6.2,44,6.6l-6.1,2.5c-0.7,0.3-1.4,0.6-2.1,0.9c-0.2,0.2-0.5,0.1-0.7-0.1c0,0,0-0.1-0.1-0.1
	c-1.5-2.5-3.1-4.9-4.7-7.4c-0.1-0.2-0.2-0.3-0.3-0.5c-0.4-0.4-1-0.5-1.4-0.1c0,0-0.1,0.1-0.1,0.1c-0.1,0.1-0.2,0.3-0.3,0.5
	c-1.6,2.5-3.2,4.9-4.7,7.4C23.5,10,23.2,10.1,23,10c0,0-0.1,0-0.1-0.1c-0.7-0.3-1.4-0.6-2.1-0.9l-6.1-2.5c-1.1-0.4-1.7,0-1.7,1.2
	s0.1,2.3,0.1,3.4c0,1.9,0.1,3.8,0.2,5.7c0,0.3-0.1,0.5-0.4,0.6c-2,0.5-3.9,1-5.9,1.5c-1,0.3-2,0.5-3,0.7c-0.5,0.1-0.9,0.6-0.9,1.1
	c0,0.3,0.2,0.7,0.4,0.9c0.5,0.7,2.8,3.9,5.4,6.9c1.8,2,2.7,3,4.3,3.8c0.9,0.5,1.9,0.8,2.9,1.1c1.5,0.1,3.1,0,4.5-0.4
	c2.3-0.6,3.3-1.6,5.3-1.6c1.2,0,2.3,0.3,3.3,0.9c1-0.6,2.1-0.9,3.3-0.9c2,0,2.9,1,5.3,1.6c1.5,0.4,3,0.5,4.5,0.4
	c1-0.2,2-0.6,2.9-1.1c1.6-0.9,2.5-1.9,4.3-3.8c2.7-3,4.9-6.2,5.5-6.9c0.2-0.2,0.4-0.6,0.4-0.9C55.5,20.2,55.1,19.7,54.6,19.6z
	 M43.8,9c0,0.1,0,0.2,0,0.3c-0.1,2.4-0.2,4.8-0.3,7.3c0,0.3-0.2,0.4-0.4,0.4c-1.8-0.1-3.6,0.2-5.2,1c-0.1,0-0.2,0.1-0.3,0.1
	c0.3-2,0-4.1-0.9-6L43.8,9z M14.9,9l7.2,2.9c-0.9,1.9-1.2,4-0.9,6c-0.1,0-0.2,0-0.3-0.1c-1.6-0.8-3.4-1.1-5.2-1
	c-0.3,0-0.4,0-0.4-0.4c-0.1-2.4-0.2-4.8-0.3-7.3C14.9,9.2,14.9,9.1,14.9,9z M10.7,27.5l-4.9-6.2l7.6-1.9c0.4,2.1,1.4,4,2.9,5.5
	C14.2,25.2,12.2,26.1,10.7,27.5z M24.8,29.5c-1.8,0.5-3.6,1.2-5.5,1.6c-2.6,0.6-5.4-0.1-7.3-2c0,0-0.1-0.1-0.1-0.2
	c1.6-1.5,3.8-2.3,6-2.1c0.7,0,1.4,0.2,2.1,0.4c1.8,0.6,3.5,1.2,5.3,1.8c0.1,0,0.2,0.1,0.4,0.2L24.8,29.5z M26.3,27.2
	c-1.7-0.6-3.4-1.1-5.1-1.7c-0.8-0.3-1.6-0.7-2.4-1.1c-1.9-1.2-3.1-3.2-3.5-5.4c0.5,0,1,0,1.5,0c1.7,0.1,3.3,0.7,4.6,1.8
	c0.4,0.3,0.8,0.7,1.1,1.2c1.2,1.6,2.4,3.3,3.6,5L26.3,27.2L26.3,27.2z M28.1,24.7c0,0.4,0,0.8-0.1,1.3c-0.2-0.2-0.3-0.3-0.3-0.4
	l-3.5-4.8c-1.6-2.4-1.7-5.4-0.4-7.9c1.2,0.6,2.2,1.5,2.9,2.6c0.9,1.4,1.4,3,1.3,4.6C28.1,21.5,28.2,23.1,28.1,24.7L28.1,24.7z
	 M25.2,11l4.2-6.5l0,0l4.2,6.5c-1.8,1-3.3,2.5-4.2,4.4C28.4,13.5,27,12,25.2,11z M30.6,25.9c0-0.5-0.1-0.9-0.1-1.3
	c0-1.6,0-3.1,0-4.7c-0.1-1.6,0.4-3.3,1.3-4.6c0.7-1.1,1.7-2,2.9-2.6c1.3,2.5,1.2,5.5-0.3,7.9L31,25.5C30.9,25.6,30.8,25.7,30.6,25.9
	L30.6,25.9z M32.4,27.2L32.4,27.2l0.2-0.5c1.2-1.7,2.4-3.3,3.6-5c0.3-0.4,0.7-0.8,1.1-1.2c1.3-1.1,2.9-1.7,4.6-1.8c0.5,0,1,0,1.5,0
	c-0.4,2.2-1.6,4.2-3.5,5.4c-0.8,0.5-1.6,0.8-2.4,1.1C35.8,26.1,34.1,26.6,32.4,27.2L32.4,27.2z M46.6,29.1c-1.9,1.9-4.7,2.6-7.3,2
	c-1.8-0.5-3.7-1.1-5.5-1.6L33,29.2c0.2-0.1,0.3-0.1,0.4-0.2c1.8-0.6,3.5-1.2,5.3-1.8c0.7-0.2,1.4-0.4,2.1-0.4c2.2-0.1,4.4,0.6,6,2.1
	C46.7,29.1,46.7,29.1,46.6,29.1L46.6,29.1z M48,27.5c-1.6-1.4-3.5-2.3-5.6-2.6c1.5-1.5,2.5-3.4,2.9-5.5l7.7,1.9L48,27.5z"/>
<path class="st0" d="M39.9,29.1c0.4,0.1,0.9,0.2,1.3,0.2c0.4,0,0.9-0.1,1.3-0.2c-0.4-0.1-0.9-0.2-1.3-0.1h-0.3
	C40.5,29,40.2,29,39.9,29.1L39.9,29.1z"/>
<path class="st0" d="M16.1,29.1c0.4,0.1,0.9,0.2,1.3,0.2c0.5,0,0.9-0.1,1.4-0.2l0,0c-0.3-0.1-0.7-0.1-1-0.1h-0.3
	C17,29,16.6,29,16.1,29.1z"/>
<path class="st0" d="M11,24.6c0.5-0.3,1.1-0.6,1.7-0.9c-0.3-0.6-0.6-1.2-0.8-1.8l-2.4,0.6L11,24.6z"/>
<path class="st0" d="M46,23.7c0.6,0.2,1.1,0.5,1.7,0.9l1.6-2L46.8,22C46.6,22.6,46.3,23.1,46,23.7z"/>
<path class="st0" d="M40,21.4c-0.5,0.2-1,0.5-1.4,0.8c-0.3,0.2-0.5,0.5-0.7,0.8c0.3-0.1,0.6-0.3,0.8-0.5
	C39.2,22.2,39.6,21.9,40,21.4z"/>
<path class="st0" d="M18.7,21.4c0.4,0.4,0.8,0.8,1.3,1.1c0.3,0.2,0.6,0.3,0.9,0.5c-0.2-0.3-0.4-0.5-0.7-0.8
	C19.6,21.9,19.2,21.6,18.7,21.4z"/>
<path class="st0" d="M33.6,16.6c-0.6,0.9-0.9,1.9-0.9,2.9l0.1-0.1C33.3,18.6,33.6,17.6,33.6,16.6z"/>
<path class="st0" d="M25.1,16.6c0,1,0.3,2,0.9,2.8l0.1,0.1C26,18.5,25.7,17.5,25.1,16.6z"/>
<path class="st0" d="M39.3,13.1c0.2,0.6,0.3,1.3,0.4,1.9c0.6-0.1,1.2-0.2,1.8-0.3c0-0.9,0.1-1.7,0.1-2.6L39.3,13.1z"/>
<path class="st0" d="M17.2,14.8c0.6,0,1.2,0.1,1.8,0.2c0.1-0.7,0.2-1.3,0.4-1.9l-2.3-0.9C17.1,13,17.2,13.9,17.2,14.8z"/>
<path class="st0" d="M28,10.4c0.5,0.4,0.9,0.8,1.3,1.3c0.4-0.4,0.8-0.9,1.3-1.3l-1.3-2L28,10.4z"/>
</svg>
